<?xml version="1.0" encoding="utf-8"?>
<!-- Generator: Adobe Illustrator 25.0.1, SVG Export Plug-In . SVG Version: 6.00 Build 0)  -->
<svg version="1.1" id="Layer_1" xmlns="http://www.w3.org/2000/svg" xmlns:xlink="http://www.w3.org/1999/xlink" x="0px" y="0px"
	 viewBox="0 0 16 16" style="enable-background:new 0 0 16 16;" xml:space="preserve">
<style type="text/css">
	.st0{fill:#0FC6F7;stroke:#FFFFFF;stroke-miterlimit:10;}
	.st1{fill:#FFFFFF;}
	.st2{fill:#FFDA00;}
	.st3{fill:none;stroke:#FFFDFD;stroke-miterlimit:10;}
	.st4{fill:none;stroke:#FFFFFF;stroke-miterlimit:10;}
</style>
<path class="st0" d="M11.8,14.3H4c-1.5,0-2.7-1.2-2.7-2.7V3.8c0-1.5,1.2-2.7,2.7-2.7h7.8c1.5,0,2.7,1.2,2.7,2.7v7.8
	C14.5,13.1,13.3,14.3,11.8,14.3z"/>
<circle class="st1" cx="9.8" cy="5.2" r="0.9"/>
<circle class="st1" cx="6" cy="5.1" r="0.9"/>
<circle class="st1" cx="7.2" cy="5.4" r="0.9"/>
<circle class="st1" cx="8.1" cy="4.9" r="0.9"/>
<circle class="st1" cx="9" cy="5.6" r="0.9"/>
<rect x="4.7" y="5.1" class="st2" width="6" height="6.7"/>
<path class="st3" d="M3.4,4.3c0,0,1.2-0.9,1.3-0.5s0,8.1,0,8.1h5.9V3.6"/>
<path class="st4" d="M10.7,5.8c0,0,1.2-0.3,1.8,0.4s0.6,2.4,0.1,3.5c-0.3,0.8-1.4,0.9-1.9,0.6"/>
</svg>
